<mxfile host="app.diagrams.net" modified="2022-03-16T04:59:22.340Z" agent="5.0 (Windows NT 10.0; Win64; x64) AppleWebKit/537.36 (KHTML, like Gecko) Chrome/99.0.4844.51 Safari/537.36" etag="fK_YUGKCmbi1mR-88VgU" version="17.0.0" type="github">
  <diagram name="Page-1" id="b520641d-4fe3-3701-9064-5fc419738815">
    <mxGraphModel dx="1240" dy="616" grid="1" gridSize="6" guides="1" tooltips="1" connect="1" arrows="1" fold="1" page="1" pageScale="1" pageWidth="1100" pageHeight="850" background="none" math="0" shadow="0">
      <root>
        <mxCell id="0" />
        <mxCell id="1" parent="0" />
        <mxCell id="BKVtwZCe_2V-ask1gBGc-29" value="&lt;font style=&quot;font-size: 18px&quot;&gt;1.0&lt;br&gt;proses&lt;br&gt;pengecekan&amp;nbsp;&lt;br&gt;stok barang&lt;/font&gt;" style="ellipse;whiteSpace=wrap;html=1;aspect=fixed;fontSize=20;" vertex="1" parent="1">
          <mxGeometry x="486" y="72" width="144" height="144" as="geometry" />
        </mxCell>
        <mxCell id="BKVtwZCe_2V-ask1gBGc-30" value="&lt;font style=&quot;font-size: 18px&quot;&gt;1.1&lt;br&gt;proses&lt;br&gt;pembelian&lt;br&gt;barang&lt;br&gt;&lt;/font&gt;" style="ellipse;whiteSpace=wrap;html=1;aspect=fixed;fontSize=20;" vertex="1" parent="1">
          <mxGeometry x="486" y="336" width="144" height="144" as="geometry" />
        </mxCell>
        <mxCell id="BKVtwZCe_2V-ask1gBGc-31" value="&lt;font style=&quot;font-size: 18px&quot;&gt;1.2&lt;br&gt;entry&lt;br&gt;data&lt;br&gt;&lt;/font&gt;" style="ellipse;whiteSpace=wrap;html=1;aspect=fixed;fontSize=20;" vertex="1" parent="1">
          <mxGeometry x="486" y="564" width="144" height="144" as="geometry" />
        </mxCell>
        <mxCell id="BKVtwZCe_2V-ask1gBGc-32" value="" style="html=1;verticalAlign=bottom;endArrow=block;rounded=0;fontSize=18;exitX=0.5;exitY=1;exitDx=0;exitDy=0;" edge="1" parent="1" source="BKVtwZCe_2V-ask1gBGc-29">
          <mxGeometry width="80" relative="1" as="geometry">
            <mxPoint x="504" y="276" as="sourcePoint" />
            <mxPoint x="558" y="324" as="targetPoint" />
          </mxGeometry>
        </mxCell>
        <mxCell id="BKVtwZCe_2V-ask1gBGc-34" value="" style="html=1;verticalAlign=bottom;endArrow=block;rounded=0;fontSize=18;exitX=0.5;exitY=1;exitDx=0;exitDy=0;" edge="1" parent="1" source="BKVtwZCe_2V-ask1gBGc-30">
          <mxGeometry width="80" relative="1" as="geometry">
            <mxPoint x="558" y="486" as="sourcePoint" />
            <mxPoint x="558" y="552" as="targetPoint" />
          </mxGeometry>
        </mxCell>
        <mxCell id="BKVtwZCe_2V-ask1gBGc-35" value="owner" style="html=1;fontSize=18;" vertex="1" parent="1">
          <mxGeometry x="60" y="119" width="110" height="50" as="geometry" />
        </mxCell>
        <mxCell id="BKVtwZCe_2V-ask1gBGc-36" value="barang" style="shape=partialRectangle;whiteSpace=wrap;html=1;left=0;right=0;fillColor=none;fontSize=18;" vertex="1" parent="1">
          <mxGeometry x="804" y="119" width="120" height="47" as="geometry" />
        </mxCell>
        <mxCell id="BKVtwZCe_2V-ask1gBGc-37" value="pemasok" style="shape=partialRectangle;whiteSpace=wrap;html=1;left=0;right=0;fillColor=none;fontSize=18;" vertex="1" parent="1">
          <mxGeometry x="804" y="216" width="120" height="47" as="geometry" />
        </mxCell>
        <mxCell id="BKVtwZCe_2V-ask1gBGc-38" value="data stok barang" style="html=1;verticalAlign=bottom;endArrow=block;rounded=0;fontSize=18;" edge="1" parent="1">
          <mxGeometry width="80" relative="1" as="geometry">
            <mxPoint x="174" y="138" as="sourcePoint" />
            <mxPoint x="480" y="138" as="targetPoint" />
          </mxGeometry>
        </mxCell>
        <mxCell id="BKVtwZCe_2V-ask1gBGc-39" value="data stok barang" style="html=1;verticalAlign=bottom;endArrow=block;rounded=0;fontSize=18;" edge="1" parent="1">
          <mxGeometry width="80" relative="1" as="geometry">
            <mxPoint x="636" y="126" as="sourcePoint" />
            <mxPoint x="792" y="126" as="targetPoint" />
          </mxGeometry>
        </mxCell>
        <mxCell id="BKVtwZCe_2V-ask1gBGc-40" value="" style="html=1;verticalAlign=bottom;endArrow=block;rounded=0;fontSize=18;" edge="1" parent="1">
          <mxGeometry width="80" relative="1" as="geometry">
            <mxPoint x="786" y="156" as="sourcePoint" />
            <mxPoint x="642" y="156" as="targetPoint" />
          </mxGeometry>
        </mxCell>
        <mxCell id="BKVtwZCe_2V-ask1gBGc-41" value="informasi stok barang" style="text;html=1;align=center;verticalAlign=middle;resizable=0;points=[];autosize=1;strokeColor=none;fillColor=none;fontSize=18;" vertex="1" parent="1">
          <mxGeometry x="624" y="166" width="186" height="30" as="geometry" />
        </mxCell>
        <mxCell id="BKVtwZCe_2V-ask1gBGc-43" value="" style="html=1;verticalAlign=bottom;endArrow=block;rounded=0;fontSize=18;exitX=0.75;exitY=1;exitDx=0;exitDy=0;" edge="1" parent="1" source="BKVtwZCe_2V-ask1gBGc-35">
          <mxGeometry width="80" relative="1" as="geometry">
            <mxPoint x="162" y="264" as="sourcePoint" />
            <mxPoint x="522" y="330" as="targetPoint" />
            <Array as="points">
              <mxPoint x="143" y="282" />
              <mxPoint x="522" y="288" />
            </Array>
          </mxGeometry>
        </mxCell>
        <mxCell id="BKVtwZCe_2V-ask1gBGc-44" value="daftar yang dibeli&amp;nbsp;" style="text;html=1;align=center;verticalAlign=middle;resizable=0;points=[];autosize=1;strokeColor=none;fillColor=none;fontSize=18;" vertex="1" parent="1">
          <mxGeometry x="248" y="253" width="156" height="30" as="geometry" />
        </mxCell>
        <mxCell id="BKVtwZCe_2V-ask1gBGc-45" value="data suplier&lt;br&gt;pembayaran" style="text;html=1;align=center;verticalAlign=middle;resizable=0;points=[];autosize=1;strokeColor=none;fillColor=none;fontSize=18;" vertex="1" parent="1">
          <mxGeometry x="251" y="283" width="114" height="54" as="geometry" />
        </mxCell>
        <mxCell id="BKVtwZCe_2V-ask1gBGc-46" value="" style="html=1;verticalAlign=bottom;endArrow=block;rounded=0;fontSize=18;" edge="1" parent="1">
          <mxGeometry width="80" relative="1" as="geometry">
            <mxPoint x="480" y="402" as="sourcePoint" />
            <mxPoint x="90" y="174" as="targetPoint" />
            <Array as="points">
              <mxPoint x="90" y="402" />
            </Array>
          </mxGeometry>
        </mxCell>
        <mxCell id="BKVtwZCe_2V-ask1gBGc-47" value="bukti pembayaran barang" style="text;html=1;align=center;verticalAlign=middle;resizable=0;points=[];autosize=1;strokeColor=none;fillColor=none;fontSize=18;" vertex="1" parent="1">
          <mxGeometry x="149" y="403" width="222" height="30" as="geometry" />
        </mxCell>
        <mxCell id="BKVtwZCe_2V-ask1gBGc-48" value="transaksi" style="shape=partialRectangle;whiteSpace=wrap;html=1;left=0;right=0;fillColor=none;fontSize=18;" vertex="1" parent="1">
          <mxGeometry x="168" y="450" width="120" height="36" as="geometry" />
        </mxCell>
        <mxCell id="BKVtwZCe_2V-ask1gBGc-49" value="" style="html=1;verticalAlign=bottom;endArrow=block;rounded=0;fontSize=18;exitX=0.077;exitY=0.819;exitDx=0;exitDy=0;exitPerimeter=0;entryX=1;entryY=0.5;entryDx=0;entryDy=0;" edge="1" parent="1" source="BKVtwZCe_2V-ask1gBGc-30" target="BKVtwZCe_2V-ask1gBGc-48">
          <mxGeometry width="80" relative="1" as="geometry">
            <mxPoint x="288" y="468" as="sourcePoint" />
            <mxPoint x="366" y="510" as="targetPoint" />
            <Array as="points">
              <mxPoint x="498" y="468" />
            </Array>
          </mxGeometry>
        </mxCell>
        <mxCell id="BKVtwZCe_2V-ask1gBGc-50" value="data harga awal" style="text;html=1;align=center;verticalAlign=middle;resizable=0;points=[];autosize=1;strokeColor=none;fillColor=none;fontSize=18;" vertex="1" parent="1">
          <mxGeometry x="296" y="463" width="144" height="30" as="geometry" />
        </mxCell>
        <mxCell id="BKVtwZCe_2V-ask1gBGc-51" value="" style="html=1;verticalAlign=bottom;endArrow=block;rounded=0;fontSize=18;exitX=0;exitY=0.5;exitDx=0;exitDy=0;" edge="1" parent="1" source="BKVtwZCe_2V-ask1gBGc-35">
          <mxGeometry width="80" relative="1" as="geometry">
            <mxPoint x="12" y="222" as="sourcePoint" />
            <mxPoint x="480" y="636" as="targetPoint" />
            <Array as="points">
              <mxPoint x="24" y="144" />
              <mxPoint x="24" y="636" />
            </Array>
          </mxGeometry>
        </mxCell>
        <mxCell id="BKVtwZCe_2V-ask1gBGc-52" value="data barang, data suplier" style="text;html=1;align=center;verticalAlign=middle;resizable=0;points=[];autosize=1;strokeColor=none;fillColor=none;fontSize=18;" vertex="1" parent="1">
          <mxGeometry x="158" y="601" width="216" height="30" as="geometry" />
        </mxCell>
        <mxCell id="BKVtwZCe_2V-ask1gBGc-53" value="pemasok" style="shape=partialRectangle;whiteSpace=wrap;html=1;left=0;right=0;fillColor=none;fontSize=18;" vertex="1" parent="1">
          <mxGeometry x="804" y="606" width="120" height="36" as="geometry" />
        </mxCell>
        <mxCell id="BKVtwZCe_2V-ask1gBGc-54" value="barang" style="shape=partialRectangle;whiteSpace=wrap;html=1;left=0;right=0;fillColor=none;fontSize=18;" vertex="1" parent="1">
          <mxGeometry x="804" y="654" width="120" height="36" as="geometry" />
        </mxCell>
        <mxCell id="BKVtwZCe_2V-ask1gBGc-55" value="pembayaran pemesanan" style="html=1;verticalAlign=bottom;endArrow=block;rounded=0;fontSize=18;" edge="1" parent="1">
          <mxGeometry x="0.375" y="6" width="80" relative="1" as="geometry">
            <mxPoint x="600" y="330" as="sourcePoint" />
            <mxPoint x="792" y="234" as="targetPoint" />
            <Array as="points">
              <mxPoint x="600" y="234" />
            </Array>
            <mxPoint x="-1" as="offset" />
          </mxGeometry>
        </mxCell>
        <mxCell id="BKVtwZCe_2V-ask1gBGc-56" value="pembelian" style="text;html=1;align=center;verticalAlign=middle;resizable=0;points=[];autosize=1;strokeColor=none;fillColor=none;fontSize=18;" vertex="1" parent="1">
          <mxGeometry x="638" y="229" width="96" height="30" as="geometry" />
        </mxCell>
        <mxCell id="BKVtwZCe_2V-ask1gBGc-57" value="" style="html=1;verticalAlign=bottom;endArrow=block;rounded=0;fontSize=18;" edge="1" parent="1">
          <mxGeometry x="-0.0833" y="24" width="80" relative="1" as="geometry">
            <mxPoint x="942" y="240" as="sourcePoint" />
            <mxPoint x="642" y="408" as="targetPoint" />
            <Array as="points">
              <mxPoint x="996" y="240" />
              <mxPoint x="996" y="408" />
            </Array>
            <mxPoint y="1" as="offset" />
          </mxGeometry>
        </mxCell>
        <mxCell id="BKVtwZCe_2V-ask1gBGc-58" value="data suplier, data barang" style="text;html=1;align=center;verticalAlign=middle;resizable=0;points=[];autosize=1;strokeColor=none;fillColor=none;fontSize=18;" vertex="1" parent="1">
          <mxGeometry x="666" y="385" width="216" height="30" as="geometry" />
        </mxCell>
        <mxCell id="BKVtwZCe_2V-ask1gBGc-59" value="bukti pembayaran,penawaran barang" style="text;html=1;align=center;verticalAlign=middle;resizable=0;points=[];autosize=1;strokeColor=none;fillColor=none;fontSize=18;" vertex="1" parent="1">
          <mxGeometry x="654" y="403" width="312" height="30" as="geometry" />
        </mxCell>
        <mxCell id="BKVtwZCe_2V-ask1gBGc-60" value="data stok barang" style="html=1;verticalAlign=bottom;endArrow=block;rounded=0;fontSize=18;entryX=0;entryY=0.25;entryDx=0;entryDy=0;" edge="1" parent="1" target="BKVtwZCe_2V-ask1gBGc-53">
          <mxGeometry width="80" relative="1" as="geometry">
            <mxPoint x="630" y="618" as="sourcePoint" />
            <mxPoint x="710" y="618" as="targetPoint" />
          </mxGeometry>
        </mxCell>
        <mxCell id="BKVtwZCe_2V-ask1gBGc-61" value="data suplier" style="html=1;verticalAlign=bottom;endArrow=block;rounded=0;fontSize=18;" edge="1" parent="1">
          <mxGeometry width="80" relative="1" as="geometry">
            <mxPoint x="624" y="666" as="sourcePoint" />
            <mxPoint x="798" y="666" as="targetPoint" />
          </mxGeometry>
        </mxCell>
      </root>
    </mxGraphModel>
  </diagram>
</mxfile>
